<svg width="16" height="16" viewBox="0 0 16 16" fill="none" xmlns="http://www.w3.org/2000/svg">
<g clip-path="url(#clip0)">
<path d="M6.58254 7.51996C6.91457 7.35294 7.16559 7.16693 7.3376 6.96591C7.64363 6.60388 7.79464 6.12384 7.79464 5.5288C7.79464 4.94975 7.64363 4.45471 7.3416 4.03967C6.83756 3.36362 5.98449 3.01759 4.77839 2.99959H0V12.7534H4.45537C4.95741 12.7534 5.42245 12.7104 5.85248 12.6224C6.28252 12.5334 6.65455 12.3704 6.96957 12.1323C7.2496 11.9253 7.48361 11.6683 7.66963 11.3653C7.96365 10.9072 8.11067 10.3882 8.11067 9.81015C8.11067 9.2501 7.98166 8.77306 7.72563 8.38103C7.46661 7.989 7.08658 7.70197 6.58254 7.51996ZM1.97116 4.69373H4.12334C4.59638 4.69373 4.98641 4.74473 5.29243 4.84574C5.64646 4.99275 5.82348 5.29178 5.82348 5.74781C5.82348 6.15685 5.68847 6.44287 5.42145 6.60388C5.15242 6.7649 4.80339 6.8459 4.37536 6.8459H1.97116V4.69373ZM5.37444 10.8892C5.13642 11.0042 4.80139 11.0612 4.37236 11.0612H1.97116V8.46004H4.40536C4.8294 8.46304 5.15942 8.51904 5.39544 8.62405C5.81548 8.81406 6.0245 9.16209 6.0245 9.67113C6.0245 10.2712 5.80848 10.6752 5.37444 10.8892Z" fill="#383838"/>
<path d="M14.4622 3.45462H10.2249V4.66872H14.4622V3.45462Z" fill="#383838"/>
<path d="M15.9343 8.24602C15.8463 7.68098 15.6523 7.18393 15.3502 6.7549C15.0192 6.26886 14.5992 5.91283 14.0881 5.68781C13.5791 5.46179 13.0061 5.34878 12.368 5.34978C11.2969 5.34978 10.4268 5.68481 9.75379 6.34987C9.08273 7.01692 8.7467 7.976 8.7467 9.2261C8.7467 10.5592 9.11773 11.5223 9.86379 12.1133C10.6069 12.7054 11.4649 13.0004 12.439 13.0004C13.6181 13.0004 14.5352 12.6494 15.1902 11.9493C15.6093 11.5073 15.8463 11.0723 15.8983 10.6452H13.9461C13.8331 10.8562 13.7021 11.0212 13.5521 11.1413C13.2801 11.3613 12.926 11.4713 12.492 11.4713C12.079 11.4713 11.7289 11.3803 11.4369 11.1993C10.9549 10.9092 10.7029 10.4012 10.6709 9.67814H15.9983C16.0063 9.05509 15.9863 8.57605 15.9343 8.24602ZM10.7189 8.43304C10.7889 7.964 10.9589 7.59197 11.2289 7.31694C11.4989 7.04292 11.881 6.90491 12.37 6.90391C12.821 6.90391 13.1981 7.03292 13.5051 7.29194C13.8081 7.55296 13.9791 7.932 14.0141 8.43304H10.7189Z" fill="#383838"/>
</g>
<defs>
<clipPath id="clip0">
<rect width="16" height="16" fill="white"/>
</clipPath>
</defs>
</svg>
